<svg id="visual" viewBox="0 0 960 540" width="960" height="540" xmlns="http://www.w3.org/2000/svg" xmlns:xlink="http://www.w3.org/1999/xlink" version="1.1"><rect x="0" y="0" width="960" height="540" fill="#FFFFFF"></rect><defs><linearGradient id="grad1_0" x1="43.8%" y1="100%" x2="100%" y2="0%"><stop offset="14.444444444444446%" stop-color="#be0000" stop-opacity="1"></stop><stop offset="85.55555555555554%" stop-color="#be0000" stop-opacity="1"></stop></linearGradient></defs><defs><linearGradient id="grad1_1" x1="43.8%" y1="100%" x2="100%" y2="0%"><stop offset="14.444444444444446%" stop-color="#be0000" stop-opacity="1"></stop><stop offset="85.55555555555554%" stop-color="#ee937b" stop-opacity="1"></stop></linearGradient></defs><defs><linearGradient id="grad1_2" x1="43.8%" y1="100%" x2="100%" y2="0%"><stop offset="14.444444444444446%" stop-color="#ffffff" stop-opacity="1"></stop><stop offset="85.55555555555554%" stop-color="#ee937b" stop-opacity="1"></stop></linearGradient></defs><defs><linearGradient id="grad2_0" x1="0%" y1="100%" x2="56.3%" y2="0%"><stop offset="14.444444444444446%" stop-color="#be0000" stop-opacity="1"></stop><stop offset="85.55555555555554%" stop-color="#be0000" stop-opacity="1"></stop></linearGradient></defs><defs><linearGradient id="grad2_1" x1="0%" y1="100%" x2="56.3%" y2="0%"><stop offset="14.444444444444446%" stop-color="#ee937b" stop-opacity="1"></stop><stop offset="85.55555555555554%" stop-color="#be0000" stop-opacity="1"></stop></linearGradient></defs><defs><linearGradient id="grad2_2" x1="0%" y1="100%" x2="56.3%" y2="0%"><stop offset="14.444444444444446%" stop-color="#ee937b" stop-opacity="1"></stop><stop offset="85.55555555555554%" stop-color="#ffffff" stop-opacity="1"></stop></linearGradient></defs><g transform="translate(960, 540)"><path d="M-486 0C-487.5 -44.4 -489.1 -88.9 -469.4 -125.8C-449.8 -162.7 -408.9 -192.1 -375 -216.5C-341 -240.9 -314 -260.2 -291.3 -291.3C-268.6 -322.5 -250.3 -365.4 -219 -379.3C-187.7 -393.3 -143.5 -378.2 -104.8 -391.2C-66.2 -404.2 -33.1 -445.1 0 -486L0 0Z" fill="#fbc9bb"></path><path d="M-324 0C-325 -29.6 -326.1 -59.2 -313 -83.9C-299.9 -108.5 -272.6 -128.1 -250 -144.3C-227.4 -160.6 -209.3 -173.5 -194.2 -194.2C-179.1 -215 -166.9 -243.6 -146 -252.9C-125.1 -262.2 -95.7 -252.2 -69.9 -260.8C-44.1 -269.4 -22.1 -296.7 0 -324L0 0Z" fill="#d95b3f"></path><path d="M-162 0C-162.5 -14.8 -163 -29.6 -156.5 -41.9C-149.9 -54.2 -136.3 -64 -125 -72.2C-113.7 -80.3 -104.7 -86.7 -97.1 -97.1C-89.5 -107.5 -83.4 -121.8 -73 -126.4C-62.6 -131.1 -47.8 -126.1 -34.9 -130.4C-22.1 -134.7 -11 -148.4 0 -162L0 0Z" fill="#be0000"></path></g><g transform="translate(0, 0)"><path d="M486 0C458.9 35.5 431.8 71 421.1 112.8C410.5 154.7 416.3 202.9 388.8 224.5C361.4 246.1 300.7 241.1 276.5 276.5C252.3 311.9 264.5 387.7 243 420.9C221.5 454 166.2 444.5 120.1 448.2C74 451.9 37 469 0 486L0 0Z" fill="#fbc9bb"></path><path d="M324 0C305.9 23.7 287.9 47.3 280.8 75.2C273.7 103.1 277.5 135.3 259.2 149.7C240.9 164.1 200.5 160.7 184.3 184.3C168.2 207.9 176.3 258.5 162 280.6C147.7 302.7 110.8 296.3 80.1 298.8C49.3 301.3 24.7 312.6 0 324L0 0Z" fill="#d95b3f"></path><path d="M162 0C153 11.8 143.9 23.7 140.4 37.6C136.8 51.6 138.8 67.6 129.6 74.8C120.5 82 100.2 80.4 92.2 92.2C84.1 104 88.2 129.2 81 140.3C73.8 151.3 55.4 148.2 40 149.4C24.7 150.6 12.3 156.3 0 162L0 0Z" fill="#be0000"></path></g></svg>