<svg id="visual" viewBox="0 0 900 600" width="900" height="600" xmlns="http://www.w3.org/2000/svg" xmlns:xlink="http://www.w3.org/1999/xlink" version="1.1"><path d="M0 259L13.7 260C27.3 261 54.7 263 82 237C109.3 211 136.7 157 163.8 155C191 153 218 203 245.2 210C272.3 217 299.7 181 327 177C354.3 173 381.7 201 409 223C436.3 245 463.7 261 491 247C518.3 233 545.7 189 573 166C600.3 143 627.7 141 654.8 137C682 133 709 127 736.2 130C763.3 133 790.7 145 818 155C845.3 165 872.7 173 886.3 177L900 181L900 0L886.3 0C872.7 0 845.3 0 818 0C790.7 0 763.3 0 736.2 0C709 0 682 0 654.8 0C627.7 0 600.3 0 573 0C545.7 0 518.3 0 491 0C463.7 0 436.3 0 409 0C381.7 0 354.3 0 327 0C299.7 0 272.3 0 245.2 0C218 0 191 0 163.8 0C136.7 0 109.3 0 82 0C54.7 0 27.3 0 13.7 0L0 0Z" fill="#ad0010"></path><path d="M0 397L13.7 389C27.3 381 54.7 365 82 353C109.3 341 136.7 333 163.8 332C191 331 218 337 245.2 335C272.3 333 299.7 323 327 318C354.3 313 381.7 313 409 324C436.3 335 463.7 357 491 359C518.3 361 545.7 343 573 324C600.3 305 627.7 285 654.8 276C682 267 709 269 736.2 284C763.3 299 790.7 327 818 336C845.3 345 872.7 335 886.3 330L900 325L900 179L886.3 175C872.7 171 845.3 163 818 153C790.7 143 763.3 131 736.2 128C709 125 682 131 654.8 135C627.7 139 600.3 141 573 164C545.7 187 518.3 231 491 245C463.7 259 436.3 243 409 221C381.7 199 354.3 171 327 175C299.7 179 272.3 215 245.2 208C218 201 191 151 163.8 153C136.7 155 109.3 209 82 235C54.7 261 27.3 259 13.7 258L0 257Z" fill="#ef291c"></path><path d="M0 499L13.7 494C27.3 489 54.7 479 82 464C109.3 449 136.7 429 163.8 427C191 425 218 441 245.2 436C272.3 431 299.7 405 327 395C354.3 385 381.7 391 409 403C436.3 415 463.7 433 491 431C518.3 429 545.7 407 573 397C600.3 387 627.7 389 654.8 391C682 393 709 395 736.2 398C763.3 401 790.7 405 818 408C845.3 411 872.7 413 886.3 414L900 415L900 323L886.3 328C872.7 333 845.3 343 818 334C790.7 325 763.3 297 736.2 282C709 267 682 265 654.8 274C627.7 283 600.3 303 573 322C545.7 341 518.3 359 491 357C463.7 355 436.3 333 409 322C381.7 311 354.3 311 327 316C299.7 321 272.3 331 245.2 333C218 335 191 329 163.8 330C136.7 331 109.3 339 82 351C54.7 363 27.3 379 13.7 387L0 395Z" fill="#fd6053"></path><path d="M0 547L13.7 540C27.3 533 54.7 519 82 513C109.3 507 136.7 509 163.8 511C191 513 218 515 245.2 501C272.3 487 299.7 457 327 448C354.3 439 381.7 451 409 469C436.3 487 463.7 511 491 511C518.3 511 545.7 487 573 475C600.3 463 627.7 463 654.8 463C682 463 709 463 736.2 461C763.3 459 790.7 455 818 463C845.3 471 872.7 491 886.3 501L900 511L900 413L886.3 412C872.7 411 845.3 409 818 406C790.7 403 763.3 399 736.2 396C709 393 682 391 654.8 389C627.7 387 600.3 385 573 395C545.7 405 518.3 427 491 429C463.7 431 436.3 413 409 401C381.7 389 354.3 383 327 393C299.7 403 272.3 429 245.2 434C218 439 191 423 163.8 425C136.7 427 109.3 447 82 462C54.7 477 27.3 487 13.7 492L0 497Z" fill="#ef291c"></path><path d="M0 601L13.7 601C27.3 601 54.7 601 82 601C109.3 601 136.7 601 163.8 601C191 601 218 601 245.2 601C272.3 601 299.7 601 327 601C354.3 601 381.7 601 409 601C436.3 601 463.7 601 491 601C518.3 601 545.7 601 573 601C600.3 601 627.7 601 654.8 601C682 601 709 601 736.2 601C763.3 601 790.7 601 818 601C845.3 601 872.7 601 886.3 601L900 601L900 509L886.3 499C872.7 489 845.3 469 818 461C790.7 453 763.3 457 736.2 459C709 461 682 461 654.8 461C627.7 461 600.3 461 573 473C545.7 485 518.3 509 491 509C463.7 509 436.3 485 409 467C381.7 449 354.3 437 327 446C299.7 455 272.3 485 245.2 499C218 513 191 511 163.8 509C136.7 507 109.3 505 82 511C54.7 517 27.3 531 13.7 538L0 545Z" fill="#ad0010"></path></svg>